<svg xmlns="http://www.w3.org/2000/svg" viewBox="0 0 64 64" role="img" aria-label="BT favicon">
  <defs>
    <linearGradient id="bg" x1="0" y1="0" x2="1" y2="1">
      <stop offset="0%" stop-color="#1A0A2E" />
      <stop offset="100%" stop-color="#050912" />
    </linearGradient>
    <linearGradient id="stroke" x1="0" y1="0" x2="1" y2="1">
      <stop offset="0%" stop-color="#B47CFF" />
      <stop offset="55%" stop-color="#33C9FF" />
      <stop offset="100%" stop-color="#28E98E" />
    </linearGradient>
  </defs>

  <rect x="4" y="4" width="56" height="56" rx="14" fill="url(#bg)" />
  <rect x="4" y="4" width="56" height="56" rx="14" fill="none" stroke="url(#stroke)" stroke-width="3" />

  <path
    d="M21 18h14c5.2 0 8.5 3 8.5 7.3 0 3-1.7 5.2-4.5 6.1 3.3.8 5.4 3.4 5.4 6.9 0 4.9-3.7 8.2-9.5 8.2H21V18zm8 11h5.2c2.1 0 3.4-1.1 3.4-2.9s-1.3-2.8-3.4-2.8H29v5.7zm0 12h5.8c2.5 0 4-1.2 4-3.2s-1.5-3.1-4-3.1H29V41z"
    fill="url(#stroke)"
  />
</svg>